<svg width="48" height="48" viewBox="0 0 48 48" fill="none" xmlns="http://www.w3.org/2000/svg">
<path d="M47.379 23.7806C47.379 30.0165 44.9018 35.997 40.4924 40.4064C36.083 44.8158 30.1025 47.293 23.8666 47.293C17.6308 47.293 11.6503 44.8158 7.24087 40.4064C2.83144 35.997 0.354248 30.0165 0.354248 23.7806C0.354248 17.5448 2.83144 11.5643 7.24087 7.15487C11.6503 2.74544 17.6308 0.26825 23.8666 0.26825C30.1025 0.26825 36.083 2.74544 40.4924 7.15487C44.9018 11.5643 47.379 17.5448 47.379 23.7806V23.7806ZM20.3104 15.2368C20.0906 15.0804 19.8321 14.9874 19.563 14.9681C19.294 14.9489 19.0248 15.004 18.785 15.1276C18.5453 15.2511 18.3441 15.4383 18.2036 15.6685C18.0631 15.8988 17.9887 16.1633 17.9885 16.433V31.1282C17.9887 31.398 18.0631 31.6625 18.2036 31.8927C18.3441 32.123 18.5453 32.3102 18.785 32.4337C19.0248 32.5572 19.294 32.6124 19.563 32.5931C19.8321 32.5738 20.0906 32.4809 20.3104 32.3244L30.597 24.9768C30.7875 24.8409 30.9428 24.6614 31.05 24.4534C31.1571 24.2453 31.213 24.0147 31.213 23.7806C31.213 23.5466 31.1571 23.316 31.05 23.1079C30.9428 22.8998 30.7875 22.7204 30.597 22.5844L20.3104 15.2368V15.2368Z" fill="white"/>
</svg>
